<?xml version="1.0" encoding="iso-8859-1"?>
<!-- Uploaded to: SVG Repo, www.svgrepo.com, Generator: SVG Repo Mixer Tools -->
<svg fill="#000000" height="800px" width="800px" version="1.1" id="Layer_1" xmlns="http://www.w3.org/2000/svg" xmlns:xlink="http://www.w3.org/1999/xlink" 
	 viewBox="0 0 512.081 512.081" xml:space="preserve">
<g transform="translate(0 -1)">
	<g>
		<path d="M490.707,470.414h-21.333V234.284c21.556-6.83,29.533-36.081,11.026-52.732L298.654,18.175
			c-23.545-23.001-61.908-23.001-86.067,0.607L31.731,181.333c-18.557,16.719-10.606,46.014,10.972,52.92
			c-0.004,17.629-0.004,18.435-0.009,44.18c-0.005,26.535-0.009,52.464-0.012,76.805c-0.005,51.582-0.003,91.244,0.008,115.177
			H21.374c-11.782,0-21.333,9.551-21.333,21.333s9.551,21.333,21.333,21.333H64.04h128h128h128h42.667
			c11.782,0,21.333-9.551,21.333-21.333S502.489,470.414,490.707,470.414z M241.758,49.906c8.232-8.018,20.13-8.018,27.735-0.597
			l159.913,143.772H82.484L241.758,49.906z M213.374,470.414v-42.667h21.333c11.782,0,21.333-9.551,21.333-21.333
			c0-11.782-9.551-21.333-21.333-21.333h-21.333v-42.667h85.333v128H213.374z M341.374,470.414V321.081
			c0-11.782-9.551-21.333-21.333-21.333h-128c-11.782,0-21.333,9.551-21.333,21.333v149.333H85.356
			c-0.011-23.914-0.013-63.602-0.008-115.173c0.002-24.339,0.006-50.267,0.011-76.801c0.005-25.001,0.005-26.482,0.009-42.693
			h341.339v234.667H341.374z"/>
	</g>
</g>
</svg>